<svg width="82" height="31" viewBox="0 0 82 31" fill="none" xmlns="http://www.w3.org/2000/svg">
<g filter="url(#filter0_d_1_425)">
<path d="M4.00497 1.54857C4.00488 1.21254 4.1358 0.889818 4.36974 0.649431C4.60368 0.409043 4.92205 0.27008 5.25676 0.262266H12.39C17.4469 0.262266 20.7751 2.9645 20.7751 7.39179V7.45162C20.7751 12.2977 16.7415 14.8105 11.9727 14.8105H6.53836V21.611C6.55394 21.7874 6.53277 21.9651 6.47619 22.1329C6.41961 22.3006 6.32887 22.4547 6.20973 22.5854C6.09058 22.716 5.94565 22.8204 5.78416 22.8918C5.62266 22.9631 5.44812 23 5.27166 23C5.0952 23 4.92067 22.9631 4.75917 22.8918C4.59767 22.8204 4.45274 22.716 4.3336 22.5854C4.21446 22.4547 4.12371 22.3006 4.06713 22.1329C4.01055 21.9651 3.98939 21.7874 4.00497 21.611V1.54857ZM12.0721 12.5171C15.7778 12.5171 18.2119 10.5228 18.2119 7.53139V7.47156C18.2119 4.26078 15.8175 2.59556 12.2509 2.59556H6.58804V12.4772L12.0721 12.5171Z" fill="white"/>
<path d="M25.5935 1.38904C25.5779 1.21262 25.5991 1.03487 25.6556 0.867114C25.7122 0.699353 25.803 0.545245 25.9221 0.414596C26.0412 0.283947 26.1862 0.179616 26.3477 0.108238C26.5092 0.0368607 26.6837 0 26.8602 0C27.0366 0 27.2112 0.0368607 27.3727 0.108238C27.5342 0.179616 27.6791 0.283947 27.7982 0.414596C27.9174 0.545245 28.0081 0.699353 28.0647 0.867114C28.1213 1.03487 28.1425 1.21262 28.1269 1.38904V21.611C28.1425 21.7874 28.1213 21.9651 28.0647 22.1329C28.0081 22.3006 27.9174 22.4548 27.7982 22.5854C27.6791 22.7161 27.5342 22.8204 27.3727 22.8918C27.2112 22.9631 27.0366 23 26.8602 23C26.6837 23 26.5092 22.9631 26.3477 22.8918C26.1862 22.8204 26.0412 22.7161 25.9221 22.5854C25.803 22.4548 25.7122 22.3006 25.6556 22.1329C25.5991 21.9651 25.5779 21.7874 25.5935 21.611V1.38904Z" fill="white"/>
<path d="M34.674 1.41895C34.6816 1.08908 34.8163 0.775007 35.0497 0.542621C35.2831 0.310235 35.597 0.177597 35.9258 0.172531H36.2735C36.5316 0.177833 36.7843 0.248188 37.0082 0.377127C37.2322 0.506065 37.4202 0.689448 37.5551 0.910412L51.1559 18.3104V1.35912C51.1559 1.0312 51.2857 0.7167 51.5168 0.484821C51.7478 0.252942 52.0611 0.122673 52.3879 0.122673C52.7146 0.122673 53.0279 0.252942 53.259 0.484821C53.49 0.7167 53.6198 1.0312 53.6198 1.35912V21.6508C53.6252 21.8051 53.5993 21.9589 53.5435 22.1028C53.4878 22.2467 53.4034 22.3777 53.2956 22.4878C53.1877 22.5979 53.0587 22.6848 52.9163 22.7432C52.7739 22.8016 52.6211 22.8303 52.4673 22.8275H52.3382C52.0744 22.8092 51.8184 22.7294 51.5908 22.5944C51.3631 22.4593 51.17 22.2728 51.0268 22.0497L37.1179 4.24085V21.6508C37.1158 21.9722 36.991 22.2805 36.7692 22.5124C36.5474 22.7442 36.2456 22.882 35.9258 22.8973C35.6008 22.892 35.291 22.7581 35.064 22.5246C34.8369 22.2911 34.711 21.9771 34.7137 21.6508V1.41895H34.674Z" fill="white"/>
<path d="M59.9384 1.38904C59.9228 1.21262 59.944 1.03487 60.0005 0.867114C60.0571 0.699353 60.1479 0.545245 60.267 0.414596C60.3862 0.283947 60.5311 0.179616 60.6926 0.108238C60.8541 0.0368607 61.0286 0 61.2051 0C61.3815 0 61.5561 0.0368607 61.7176 0.108238C61.8791 0.179616 62.024 0.283947 62.1431 0.414596C62.2623 0.545245 62.353 0.699353 62.4096 0.867114C62.4662 1.03487 62.4874 1.21262 62.4718 1.38904V13.6837L75.2282 0.551443C75.4899 0.279712 75.8455 0.119105 76.2216 0.10273C76.5468 0.115453 76.8548 0.252812 77.0821 0.486531C77.3094 0.72025 77.4388 1.03254 77.4436 1.35912C77.4366 1.52896 77.3961 1.69572 77.3245 1.84975C77.2529 2.00379 77.1516 2.14205 77.0264 2.25655L69.0785 10.1539L77.6523 20.6836C77.8764 20.9441 77.9998 21.2768 78 21.6209C77.9961 21.7933 77.9583 21.9633 77.8887 22.121C77.8191 22.2786 77.719 22.4209 77.5943 22.5395C77.4696 22.6582 77.3228 22.7509 77.1622 22.8123C77.0016 22.8737 76.8305 22.9026 76.6588 22.8973C76.4588 22.8891 76.2639 22.8322 76.0908 22.7314C75.9177 22.6306 75.7716 22.4891 75.6653 22.3189L67.3001 11.859L62.4718 16.7051V21.591C62.4718 21.7573 62.4391 21.922 62.3757 22.0756C62.3123 22.2293 62.2194 22.3689 62.1022 22.4865C61.9851 22.6041 61.846 22.6973 61.6929 22.761C61.5398 22.8246 61.3757 22.8574 61.21 22.8574C61.0443 22.8574 60.8803 22.8246 60.7272 22.761C60.5741 22.6973 60.435 22.6041 60.3179 22.4865C60.2007 22.3689 60.1078 22.2293 60.0443 22.0756C59.9809 21.922 59.9483 21.7573 59.9483 21.591V1.38904H59.9384Z" fill="white"/>
</g>
<defs>
<filter id="filter0_d_1_425" x="0" y="0" width="82" height="31" filterUnits="userSpaceOnUse" color-interpolation-filters="sRGB">
<feFlood flood-opacity="0" result="BackgroundImageFix"/>
<feColorMatrix in="SourceAlpha" type="matrix" values="0 0 0 0 0 0 0 0 0 0 0 0 0 0 0 0 0 0 127 0" result="hardAlpha"/>
<feOffset dy="4"/>
<feGaussianBlur stdDeviation="2"/>
<feComposite in2="hardAlpha" operator="out"/>
<feColorMatrix type="matrix" values="0 0 0 0 0 0 0 0 0 0 0 0 0 0 0 0 0 0 0.25 0"/>
<feBlend mode="normal" in2="BackgroundImageFix" result="effect1_dropShadow_1_425"/>
<feBlend mode="normal" in="SourceGraphic" in2="effect1_dropShadow_1_425" result="shape"/>
</filter>
</defs>
</svg>
